<svg xmlns="http://www.w3.org/2000/svg" width="1200" height="720" viewBox="0 0 1200 720" role="img" aria-labelledby="t d">
  <title id="t">参考研修イメージ</title>
  <desc id="d">ストレス対処と集中力向上をテーマにした参考研修の図</desc>
  <defs>
    <linearGradient id="g1" x1="0" y1="0" x2="1" y2="1">
      <stop offset="0%" stop-color="#f2f7f4"/>
      <stop offset="100%" stop-color="#edf3fa"/>
    </linearGradient>
    <linearGradient id="g2" x1="0" y1="0" x2="1" y2="0">
      <stop offset="0%" stop-color="#2d5f4a"/>
      <stop offset="100%" stop-color="#3d6e9f"/>
    </linearGradient>
  </defs>
  <rect width="1200" height="720" rx="24" fill="url(#g1)"/>
  <rect x="44" y="42" width="1112" height="636" rx="22" fill="none" stroke="#d3ddd7"/>

  <text x="600" y="130" text-anchor="middle" fill="#204f3f" font-size="50" font-weight="700" font-family="'Yu Gothic','Hiragino Kaku Gothic ProN',sans-serif">参考研修</text>
  <text x="600" y="182" text-anchor="middle" fill="#4c5d54" font-size="30" font-family="'Yu Gothic','Hiragino Kaku Gothic ProN',sans-serif">仕事に集中するためのセルフケア＆ストレス対策</text>

  <g>
    <rect x="120" y="250" width="290" height="290" rx="22" fill="#fff" stroke="#d6e0db"/>
    <circle cx="265" cy="350" r="58" fill="#e8f1ec"/>
    <path d="M250 345c0-20 16-36 36-36" stroke="#2d5f4a" stroke-width="8" fill="none" stroke-linecap="round"/>
    <path d="M283 308l18 8-10 17" stroke="#2d5f4a" stroke-width="7" fill="none" stroke-linecap="round"/>
    <text x="265" y="455" text-anchor="middle" fill="#1f2c26" font-size="34" font-weight="700" font-family="'Yu Gothic','Hiragino Kaku Gothic ProN',sans-serif">ストレス対処</text>
  </g>

  <g>
    <rect x="455" y="250" width="290" height="290" rx="22" fill="#fff" stroke="#d6e0db"/>
    <circle cx="600" cy="350" r="58" fill="#eef2fb"/>
    <path d="M570 374l25-55 23 34 20-22" stroke="#3d6e9f" stroke-width="8" fill="none" stroke-linecap="round"/>
    <text x="600" y="455" text-anchor="middle" fill="#1f2c26" font-size="34" font-weight="700" font-family="'Yu Gothic','Hiragino Kaku Gothic ProN',sans-serif">集中力向上</text>
  </g>

  <g>
    <rect x="790" y="250" width="290" height="290" rx="22" fill="#fff" stroke="#d6e0db"/>
    <circle cx="935" cy="350" r="58" fill="#f7eee1"/>
    <rect x="900" y="320" width="70" height="46" rx="8" fill="#c8922e"/>
    <path d="M920 300h30v20h-30z" fill="#e3b455"/>
    <text x="935" y="455" text-anchor="middle" fill="#1f2c26" font-size="34" font-weight="700" font-family="'Yu Gothic','Hiragino Kaku Gothic ProN',sans-serif">生産性アップ</text>
  </g>

  <path d="M415 350H448" stroke="url(#g2)" stroke-width="8" stroke-linecap="round"/>
  <path d="M750 350H783" stroke="url(#g2)" stroke-width="8" stroke-linecap="round"/>
</svg>
